<?xml version="1.0" encoding="UTF-8"?><svg id="Layer_1" xmlns="http://www.w3.org/2000/svg" viewBox="0 0 674.5 266.7"><defs><style>.cls-1{fill:#fff;}</style></defs><path class="cls-1" d="M260.6,143c-4.2-1.2-8.8-2.7-8.8-5.9s2.6-4.4,7.2-4.4,11.8,3.2,15.2,5.9l6.4-11.5c-3.4-2.8-10.6-7.5-23.2-7.5s-23,7.2-23,19,8.8,16.1,18.9,18.7c2.2.7,11,2.7,11,6.6s-3.4,5.2-8.3,5.2-13-3.2-17.9-7.4l-7.4,11.7c6.9,6.5,16.5,9.3,25.5,9.3s25.7-5.5,25.7-20-10.9-16.6-21.4-19.6l.1-.1Z"/><polygon class="cls-1" points="353.6 96.6 336.1 152.3 335.9 152.3 318.2 96.6 293.2 96.6 286.8 181.3 306.3 181.3 309.4 123.6 309.7 123.6 328 181.3 343.7 181.3 361.9 123.6 362.2 123.6 365.5 181.3 385 181.3 378.7 96.6 353.6 96.6"/><path class="cls-1" d="M403.6,93.4c-6.6,0-11.2,4.2-11.2,10.2s4.5,10.2,11.2,10.2,11.2-4.1,11.2-10.2-4.5-10.2-11.2-10.2Z"/><rect class="cls-1" x="393.8" y="120.8" width="19.6" height="60.5"/><rect class="cls-1" x="424.8" y="96.6" width="19.6" height="84.7"/><rect class="cls-1" x="455.8" y="96.6" width="19.6" height="84.7"/><path class="cls-1" d="M108.2,95.2c-25.2,0-44.9,16.5-44.9,43.8s19.8,43.7,44.9,43.7,44.9-16.3,44.9-43.7-19.8-43.8-44.9-43.8ZM108.2,165.1c-14.1,0-24.8-10.3-24.8-26.5s10.7-26.4,24.8-26.4,24.8,10.3,24.8,26.4-10.7,26.5-24.8,26.5Z"/><path class="cls-1" d="M200.4,119.6c-9.2,0-15.7,3.6-20.1,8.8h-.2v-7.7c.1,0-18.5,0-18.5,0v82.7h19.6v-29.8c3.8,5.6,10.2,9,19.2,9,17.6,0,28.6-13.8,28.6-31.6s-11.1-31.4-28.5-31.4h-.1ZM194.6,166.5c-8.3,0-14.1-6.4-14.1-15.7s5.8-15.7,14.1-15.7,14.2,6.4,14.2,15.7-5.8,15.7-14.2,15.7Z"/><path class="cls-1" d="M593.25,181.03c1.2-2.4,2.07-4.93,2.8-7.5.72-2.53,1.23-5.11,1.72-7.7.5-2.65.83-5.33,1.07-8.02.41-4.57.77-9.14.87-13.73.08-3.62.06-7.25-.02-10.87-.06-2.57-.25-5.13-.44-7.69-.19-2.56-.65-5.09-1.14-7.61-.47-2.44-1.19-4.81-2.14-7.11-.94-2.28-2.15-4.42-3.75-6.31-.81-.96-1.63-1.9-2.5-2.79-2.16-2.19-4.68-3.91-7.42-5.29-2.05-1.04-4.18-1.93-6.44-2.43-.75-.17-1.5-.31-2.25-.46-.08-.02-.16-.06-.21-.07.22-.92.47-1.81.64-2.71.54-2.84.12-5.52-1.59-7.9-1.35-1.89-3.13-3.21-5.46-3.6-2.64-.43-4.9.35-6.71,2.34-.22.24-.43.5-.62.77-.15.22-.26.47-.4.73.75-.42,1.42-.88,2.15-1.18,4.06-1.68,8.92.86,9.46,5.64.2,1.8-.32,3.43-1.64,4.68-1.48,1.39-3.94,2.14-5.97,1.11-.05-.03-.12-.03-.26-.06.37.49.68.92,1.01,1.35,1.56,2.08,2.87,4.31,3.79,6.75.12.33.27.65.34.99.09.43.37.62.74.74,2.73.86,5.32,2.05,7.8,3.46.99.56,1.93,1.21,2.87,1.86.35.25.67.57.94.91.55.72.55,1.52.05,2.19-.53.73-1.37,1.02-2.21.71-.41-.15-.8-.36-1.16-.6-1.95-1.32-4.01-2.43-6.09-3.52-.66-.35-1.35-.63-2.03-.93-.11-.05-.24-.06-.34-.08-.07.06-.12.09-.13.12-.11.87-.21,1.74-.32,2.6-.04.34.08.54.4.73,3.74,2.27,7.07,5.04,10.02,8.27,1,1.1,1.95,2.26,2.91,3.4.21.25.4.53.55.82.63,1.25.38,1.91-.45,2.8-.52.56-1.62.6-2.25.12-.26-.2-.48-.45-.69-.7-.86-1.02-1.67-2.09-2.57-3.08-1.55-1.71-3.26-3.26-5.05-4.71-1.33-1.07-2.72-2.08-4.09-3.1-.2-.15-.44-.25-.69-.39-.65.83-1.08,1.77-2.08,2.34.47.43.87.83,1.29,1.19,3.4,2.9,6.28,6.25,8.74,9.97,1.37,2.07,2.62,4.21,3.52,6.53.11.28.17.59.22.89.14,1-.45,1.61-1.15,1.93-.87.4-1.64.26-2.25-.48-.35-.41-.62-.9-.86-1.39-1.46-2.99-3.22-5.8-5.33-8.36-2.25-2.73-4.78-5.2-7.56-7.41-.28-.22-.51-.24-.84-.13-2.96,1.06-6.01,1.38-9.14,1.09-1.56-.14-3.11-.3-4.6-.77-1.31-.42-2.6-.93-3.87-1.47-2.15-.91-4.1-2.18-6-3.52-1.13-.8-1.93-1.91-2.8-2.96-.39-.47-.73-.98-1.11-1.47-.05-.06-.13-.09-.18-.13-1.85,4.06-4.96,6.55-9.29,7.69.47.56.92,1.08,1.43,1.55,2.56,2.35,5.45,4.19,8.58,5.68,2.25,1.07,4.57,1.91,6.98,2.49,2.15.52,4.33.92,6.54,1.15,3.26.34,6.53.35,9.8.2,2.23-.1,4.46-.37,6.69-.57.81-.07,1.61-.17,2.42-.25.19-.02.38,0,.69,0-.15.22-.2.35-.3.45-2.42,2.38-5.23,4.12-8.51,5.07-1.79.52-3.62.88-5.48,1.05-1.77.16-3.54.26-5.33.19-2-.08-3.98-.28-6.04-.73.04.28.06.51.1.73.59,2.79.78,5.6.53,8.44-.11,1.18-.17,2.37-.36,3.53-.24,1.49-.6,2.96-.9,4.45-.38,1.89-.81,3.77-1.1,5.68-.45,2.95-.64,5.93-.61,8.92.03,2.46.22,4.91.59,7.34.37,2.41,1.09,4.74,1.92,7.03.13.37,52.52,1.15,52.55,1.1Z"/><path class="cls-1" d="M587.97,87.36c.19.08.3.14.42.18.65.2,1.31.35,1.94.59.39.15.74.18,1.14.06.84-.25,1.67-.54,2.53-.69,2.52-.44,4.73.12,6.36,2.21,1.39,1.79,1.78,3.81.98,5.95-.53,1.42-1.47,2.59-2.66,3.54-.87.69-1.78,1.33-2.72,2.03.95.25,1.84.33,2.74.29,1.15-.04,2.2-.38,3.13-1.06,3.17-2.32,4.33-6.51,3-10.18-.69-1.89-1.9-3.35-3.49-4.52-1.28-.94-2.72-1.47-4.3-1.66-1.31-.16-2.57,0-3.85.28-1.64.37-3.11,1.06-4.36,2.18-.27.24-.54.5-.86.79Z"/><path class="cls-1" d="M523.44,82.94c.01.7.73,1.49,1.33,1.46.71-.03,1.59-.82,1.59-1.42,0-.79-.73-1.52-1.49-1.5-.86.02-1.44.62-1.43,1.46Z"/><path class="cls-1" d="M563.75,87.59c1.16.01,2.08-.88,2.11-2.03.03-1.06-1.06-2.18-2.13-2.18-.91,0-2.03,1.17-2.04,2.16-.02,1.17.86,2.05,2.06,2.06Z"/><path class="cls-1" d="M564.29,108.36c.2-.9.15-1.7.13-2.51-.01-.44-.22-.65-.63-.78-1.58-.51-3.15-1.08-4.74-1.58-2.4-.76-4.79-1.55-7.28-2-.22-.04-.43-.16-.65-.24.42-.2.83-.26,1.23-.34,1.36-.27,2.73-.44,4.12-.42,2.11.03,4.2.31,6.26.73.16.03.33.03.51.05-.01-.6-.37-.99-.61-1.43-2.3-4.15-5.61-7.35-9.56-9.88-2.59-1.66-5.39-2.93-8.35-3.82-2.04-.62-4.11-1.12-6.23-1.33-3.25-.33-6.47-.22-9.66.64-2.69.72-4.97,2.06-6.87,4.06-1.01,1.07-1.93,2.21-2.86,3.35-1.24,1.51-1.95,3.31-2.78,5.11.2.15.37.28.55.39.5.32,1,.63,1.49.96.11.07.18.21.33.38-.83.09-1.57.17-2.31.26-.85.11-1.17.37-1.3,1.13-.08.48-.06.98-.08,1.5.84,0,1.58-.01,2.33,0,.26,0,.53.05.77.15.15.06.29.25.34.41.02.07-.21.23-.34.32-.95.58-1.92,1.13-2.86,1.73-.15.1-.29.37-.27.54.09.75.24,1.5.37,2.3.77-.26,1.48-.49,2.17-.74.7-.26,1.39-.55,2.17-.57-.07.19-.16.33-.27.45-.85.89-1.7,1.78-2.56,2.66-.22.23-.34.48-.18.77.57,1.1,1.22,2.14,2.29,2.84.17.11.4.22.6.21.52-.02,1.05-.05,1.55-.18,1.25-.33,2.36-.94,3.38-1.73,1.07-.82,1.99-1.78,2.75-2.9,1.09-1.61,1.74-3.39,2.13-5.27.21-1.02.27-2.05-.15-3.04-.29-.68-.72-1.17-1.47-1.39-.69-.2-1.36-.48-2.03-.75-2.96-1.24-3.89-4.99-3.02-7.14.72-1.78,1.92-3,4.08-3.23-.34.24-.57.44-.82.56-.66.32-.61.92-.21,1.5.73,1.04,1.75,1.31,2.95,1.12,1.29-.21,2.39-.81,3.47-1.52.88-.58,1.76-1.15,2.69-1.64.38-.2.88-.25,1.33-.23,1.21.03,2.2.59,2.99,1.47,1.42,1.57,1.9,3.37,1.17,5.42-.58,1.63-1.79,2.68-3.3,3.41-.79.38-1.6.71-2.42,1.03-.67.26-1.12.73-1.26,1.41-.1.48-.13,1-.05,1.49.16,1.03.58,1.98,1.1,2.87,1.84,3.16,4.33,5.67,7.54,7.45,3.79,2.1,7.84,3.13,12.18,3.01.65-.02,1.29-.09,2.04-.15-.15-.16-.22-.27-.32-.34-.97-.76-1.95-1.49-2.9-2.27-1.46-1.19-2.9-2.41-4.35-3.62-.22-.18-.42-.36-.44-.67.08-.02.12-.05.16-.04,1.16.39,2.33.77,3.49,1.17,2.1.72,4.1,1.66,6.01,2.82.81.49,1.6,1,2.4,1.49.7.43.71.42,1.28-.13.31-.31.63-.62.89-.97.23-.3.54-.58.56-1.05-.44-.25-.87-.5-1.3-.75-1.13-.63-2.24-1.29-3.39-1.89-1.28-.67-2.58-1.3-3.9-1.9-1.77-.82-3.56-1.59-5.33-2.39-.12-.05-.21-.17-.31-.25,5.54,0,10.64,1.56,15.6,3.95Z"/><path class="cls-1" d="M612.58,180.99v-.09c-.03-.14-.06-.36-.12-.6-.21-.74-.42-1.47-.62-2.21l-.15-.52c-.48-1.67-.84-3.53-1.11-5.7-.29-2.36-.51-4.75-.64-7.08-.27-4.8-.24-9.57-.1-15.25.06-2.34.15-4.73.25-7.03.06-1.55.13-3.11.18-4.66.09-2.71.19-5.92.24-9.12.06-3.81.1-8.85-.18-13.97-.15-2.81-.38-5.28-.71-7.57-.17-1.2-.38-2.4-.58-3.56l-.06-.37c.84-1.15,1.55-2.36,2.12-3.63,1.66-3.7,1.87-7.44.61-11.13-1.17-3.43-3.35-6.22-6.47-8.29-1.6-1.06-3.41-1.79-5.41-2.19-.36-.36-.71-.72-1.06-1.08-.63-.64-1.28-1.3-1.95-1.95-1.45-1.38-3.19-2.98-5.12-4.37-3.98-2.84-7.87-4.94-11.89-6.43-2.43-.9-5.07-1.81-7.84-2.36-1.41-.28-2.83-.49-4.2-.7l-.77-.11c-1.91-.29-3.9-.43-6.09-.43-.22,0-.44,0-.66,0-2.84.04-5.61.28-8.23.72-3.31.56-6.23,1.29-8.93,2.24-3.44,1.21-6.39,2.61-9.01,4.28-2.77,1.76-5.15,3.79-7.09,6.03l-.14.16c-.77.89-1.62,1.88-2.26,3.08-1.7.32-3.18,1.21-4.29,2.6-.97,1.21-1.69,2.66-2.2,4.45-.39,1.37-.62,2.61-.71,3.78-.93.8-1.85,1.74-2.8,2.87-.89,1.04-1.96,2.43-2.72,4.15h-.07c-1.3.11-2.64.22-3.96.37-1.19.13-2.43.42-3.8.88-1.91.64-3.05,2.96-2.44,4.96.4,1.3,1.4,2.24,2.67,2.56-1.1.53-2.18,1.1-3.24,1.75-.83.51-1.65,1.09-2.45,1.72-1.55,1.22-1.93,3.65-.83,5.3.72,1.09,1.97,1.76,3.26,1.76.64,0,1.28-.16,1.88-.48.22-.12.44-.25.65-.38.32-.21.65-.41.98-.61-1.07.99-2.03,1.99-2.9,3.02-1.04,1.23-2.1,2.55-3.15,3.92-.66.86-1.41,1.84-1.83,3.12-.58,1.77.13,3.78,1.7,4.78.62.39,1.28.59,1.96.59.32,0,.66-.05.99-.13,1.4-.38,2.12-1.37,2.6-2.02.34-.46.66-.92.98-1.38.62-.89,1.22-1.73,1.86-2.51.97-1.17,2.08-2.36,3.4-3.65.8-.78,1.65-1.51,2.54-2.28.08-.07.17-.14.25-.21h0c-.59.77-1.2,1.55-1.76,2.38-.9,1.32-1.94,2.86-2.84,4.51-1.11,2.03-2.01,4.12-2.67,6.21-.49,1.55-.92,3.09-1.39,4.8-.37,1.35-.03,2.72.96,3.85.91,1.04,1.96,1.26,2.68,1.26.31,0,.64-.04.96-.12,1.43-.37,2.47-1.3,2.94-2.64.18-.52.35-1.05.52-1.58.12-.38.24-.75.37-1.13.13-.37.25-.74.37-1.12.34-1.03.66-2,1.03-2.95.33-.84.75-1.66,1.19-2.53l.29-.58c.7-1.4,1.6-2.69,2.62-4.05.43.5.87,1.01,1.35,1.51,1.84,1.92,4.02,3.67,6.67,5.35,1.44.92,3.12,1.95,4.96,2.73.32,2.18.38,4.14.18,6-.11.96-.29,1.93-.48,2.95-.04.23-.09.45-.13.68-.19.09-.36.18-.51.27-1.71.93-3.41,1.85-5.1,2.78-4.01,2.21-7.72,4.79-11.03,7.67-3.88,3.38-6.98,6.85-9.49,10.63-1.89,2.85-3.36,5.6-4.49,8.41-.97,2.42-1.75,5.04-2.3,7.78-.08.42-.15.84-.22,1.28-.03.2-.06.4-.1.61l-.05.32h115.17l-.05-.31ZM501.97,172.04c1.14-2.84,2.61-5.5,4.3-8.05,2.56-3.85,5.66-7.2,9.14-10.23,3.29-2.87,6.86-5.32,10.68-7.43,1.69-.93,3.39-1.85,5.08-2.77.27-.15.54-.3.83-.39.34-.1.52-.31.58-.64.26-1.47.58-2.93.74-4.4.25-2.3.12-4.6-.25-6.89-.08-.5-.26-.8-.77-1-1.78-.71-3.42-1.7-5.03-2.72-2.29-1.45-4.43-3.09-6.3-5.05-.85-.89-1.62-1.85-2.43-2.77-.12-.14-.26-.27-.44-.46-.28.34-.51.62-.73.91-1.31,1.71-2.6,3.42-3.57,5.36-.54,1.08-1.1,2.15-1.55,3.27-.54,1.36-.97,2.77-1.44,4.16-.3.89-.57,1.8-.88,2.68-.26.74-.79,1.17-1.56,1.37-.16.04-.32.06-.46.06-.47,0-.86-.21-1.19-.58-.5-.57-.75-1.25-.54-2.01.44-1.58.88-3.17,1.38-4.73.64-2.03,1.5-3.99,2.52-5.85.82-1.5,1.77-2.93,2.74-4.34.8-1.17,1.71-2.28,2.56-3.39-.67-1.01-1.33-2.02-2.03-3.09-.31.27-.56.48-.8.7-1.27,1.12-2.58,2.19-3.79,3.37-1.24,1.21-2.44,2.47-3.54,3.8-1.05,1.26-1.94,2.65-2.91,3.98-.4.55-.79,1.09-1.52,1.28-.17.04-.32.07-.47.07-.32,0-.61-.1-.9-.28-.8-.51-1.18-1.57-.88-2.48.31-.96.92-1.75,1.52-2.53,1-1.3,2.03-2.59,3.09-3.85,1.42-1.68,3.02-3.18,4.73-4.56,1.19-.96,2.43-1.88,3.75-2.89-.11-.77-.23-1.65-.36-2.58-.13.04-.28.05-.41.11-2.89,1.34-5.68,2.86-8.37,4.56-.17.11-.33.21-.51.3-.33.17-.65.25-.95.25-.71,0-1.29-.41-1.6-.88-.51-.77-.35-2.04.41-2.64.72-.57,1.48-1.1,2.26-1.58,1.91-1.18,3.95-2.09,6.01-2.98.8-.35,1.65-.6,2.48-.86.34-.1.53-.27.57-.63.06-.65.15-1.29.23-2.01-1.29.26-2.49.49-3.69.73-.64.13-1.28.29-1.93.41-.15.03-.29.04-.44.04-.86,0-1.56-.5-1.81-1.29-.27-.9.22-2.18,1.17-2.5,1.11-.37,2.23-.66,3.38-.79,1.57-.17,3.14-.29,4.72-.42.35-.03.55-.18.67-.51.59-1.61,1.56-2.97,2.66-4.27.87-1.03,1.79-1.99,2.82-2.85.32-.27.41-.61.44-.99.07-1.21.31-2.39.65-3.55.39-1.36.94-2.64,1.84-3.75.9-1.11,2.05-1.77,3.46-1.95.46-.06.69-.24.88-.65.56-1.21,1.45-2.2,2.31-3.19,1.92-2.23,4.18-4.08,6.65-5.66,2.69-1.71,5.59-3.02,8.6-4.08,2.8-.98,5.68-1.66,8.6-2.15,2.63-.44,5.27-.66,7.93-.69.21,0,.42,0,.63,0,1.94,0,3.88.12,5.8.4,1.63.24,3.26.47,4.87.79,2.58.52,5.07,1.37,7.55,2.28,4.11,1.52,7.87,3.65,11.42,6.18,1.76,1.25,3.35,2.7,4.9,4.18,1.08,1.03,2.1,2.12,3.16,3.17.14.14.35.27.55.31,1.79.32,3.47.95,4.99,1.96,2.7,1.79,4.64,4.2,5.69,7.28,1.12,3.29.87,6.53-.55,9.68-.6,1.34-1.37,2.6-2.28,3.76-.15.19-.11.35-.07.54.25,1.45.51,2.89.72,4.35.35,2.46.55,4.92.69,7.4.25,4.61.25,9.22.17,13.83-.05,3.03-.14,6.06-.24,9.09-.13,3.91-.33,7.81-.42,11.71-.12,5.14-.19,10.28.1,15.41.14,2.41.36,4.82.65,7.21.25,2.02.61,4.03,1.17,6,.11.4.22.79.34,1.19h-110.3c.51-2.48,1.21-4.91,2.16-7.27Z"/></svg>